<svg width="59" height="59" fill="none" xmlns="http://www.w3.org/2000/svg"><rect x=".5" y="58.5" width="58" height="58" rx="29" transform="rotate(-90 .5 58.5)" stroke="#969696"/><path d="M25.714 22.955v-1.019c0-2.363 1.901-4.685 4.265-4.905a4.727 4.727 0 0 1 5.189 4.706v1.45" stroke="#fff" stroke-width="1.636" stroke-miterlimit="10" stroke-linecap="round" stroke-linejoin="round"/><path d="M27.29 38.008h6.303c4.222 0 4.978-1.691 5.2-3.75l.787-6.303c.284-2.563-.452-4.653-4.937-4.653h-8.404c-4.485 0-5.22 2.09-4.937 4.653l.788 6.303c.22 2.059.977 3.75 5.2 3.75Z" fill="#fff"/><path fill-rule="evenodd" clip-rule="evenodd" d="M34.112 27.504h.01Z" fill="#fff"/><path d="M34.112 27.504h.01" stroke="#2B2D30" stroke-width="2.182" stroke-linecap="round" stroke-linejoin="round"/><path fill-rule="evenodd" clip-rule="evenodd" d="M26.759 27.504h.01Z" fill="#fff"/><path d="M26.759 27.504h.01" stroke="#2B2D30" stroke-width="2.182" stroke-linecap="round" stroke-linejoin="round"/></svg>