<svg width="59" height="59" fill="none" xmlns="http://www.w3.org/2000/svg"><rect x=".5" y="58.5" width="58" height="58" rx="29" transform="rotate(-90 .5 58.5)" stroke="#969696"/><path fill-rule="evenodd" clip-rule="evenodd" d="M28.638 28.277c.122-.01.255-.01.366 0 2.643-.088 4.742-2.254 4.753-4.92 0-2.72-2.21-4.93-4.93-4.93a4.927 4.927 0 0 0-4.932 4.93 4.909 4.909 0 0 0 4.743 4.92ZM23.45 38.895c-2.687-1.788-2.687-4.72 0-6.52 3.065-2.032 8.074-2.032 11.117 0 2.687 1.789 2.687 4.72 0 6.52-3.054 2.043-8.063 2.043-11.117 0Z" fill="#fff"/></svg>