<svg width="59" height="59" viewBox="0 0 59 59" fill="none" xmlns="http://www.w3.org/2000/svg">
<rect x="0.5" y="58.5" width="58" height="58" rx="29" transform="rotate(-90 0.5 58.5)" stroke="#969696"/>
<path d="M25.7139 22.9551V21.9361C25.7139 19.5727 27.6152 17.2512 29.9786 17.0306C32.7938 16.7575 35.1678 18.9739 35.1678 21.7366V23.1862" stroke="white" stroke-width="1.63636" stroke-miterlimit="10" stroke-linecap="round" stroke-linejoin="round"/>
<path d="M27.2899 38.0079H33.5925C37.8152 38.0079 38.5715 36.3167 38.7921 34.2578L39.58 27.9552C39.8636 25.3921 39.1283 23.3018 34.6429 23.3018H26.2394C21.7541 23.3018 21.0188 25.3921 21.3024 27.9552L22.0902 34.2578C22.3108 36.3167 23.0671 38.0079 27.2899 38.0079Z" fill="white"/>
<path fill-rule="evenodd" clip-rule="evenodd" d="M34.1122 27.5037H34.1217Z" fill="white"/>
<path d="M34.1122 27.5037H34.1217" stroke="#2B2D30" stroke-width="2.18182" stroke-linecap="round" stroke-linejoin="round"/>
<path fill-rule="evenodd" clip-rule="evenodd" d="M26.7587 27.5037H26.7681Z" fill="white"/>
<path d="M26.7587 27.5037H26.7681" stroke="#2B2D30" stroke-width="2.18182" stroke-linecap="round" stroke-linejoin="round"/>
</svg>
