<svg width="59" height="59" viewBox="0 0 59 59" fill="none" xmlns="http://www.w3.org/2000/svg">
<rect x="0.5" y="58.5" width="58" height="58" rx="29" transform="rotate(-90 0.5 58.5)" stroke="#969696"/>
<path fill-rule="evenodd" clip-rule="evenodd" d="M28.6376 28.2773C28.7597 28.2662 28.893 28.2662 29.004 28.2773C31.6471 28.1885 33.7461 26.0229 33.7572 23.3576C33.7572 20.6368 31.5472 18.4268 28.8264 18.4268C26.0944 18.4268 23.8955 20.6368 23.8955 23.3576C23.8955 26.0229 25.9944 28.1885 28.6376 28.2773ZM23.4512 38.8947C20.7637 37.1067 20.7637 34.1749 23.4512 32.3758C26.5163 30.3435 31.5249 30.3435 34.5678 32.3758C37.2553 34.1638 37.2553 37.0956 34.5678 38.8947C31.5138 40.9381 26.5052 40.9381 23.4512 38.8947Z" fill="white"/>
</svg>
